<svg width="180" height="52" viewBox="0 0 180 52" fill="none" xmlns="http://www.w3.org/2000/svg">
<rect width="180" height="52" rx="8" fill="#FFFFFF"/>
<g clip-path="url(#clip0_256_1131)">
<path d="M99.9905 26.1871C99.9905 25.3677 99.9224 24.7697 99.7752 24.1497H90.1992V27.848H95.8201C95.7068 28.7671 95.0948 30.1512 93.7349 31.0813L93.7159 31.2051L96.7436 33.4969L96.9534 33.5174C98.8798 31.7789 99.9905 29.221 99.9905 26.1871Z" fill="#4285F4"/>
<path d="M90.1992 35.9312C92.953 35.9312 95.2648 35.0453 96.9534 33.5173L93.7349 31.0812C92.8737 31.6681 91.7177 32.0777 90.1992 32.0777C87.5021 32.0777 85.213 30.3393 84.397 27.9365L84.2773 27.9464L81.1291 30.3271L81.0879 30.439C82.7651 33.6944 86.2102 35.9312 90.1992 35.9312Z" fill="#34A853"/>
<path d="M84.397 27.9366C84.1816 27.3165 84.057 26.6521 84.057 25.9656C84.057 25.279 84.1816 24.6147 84.3856 23.9946L84.3799 23.8625L81.1922 21.4436L81.0879 21.4921C80.3966 22.843 80 24.36 80 25.9656C80 27.5712 80.3966 29.0881 81.0879 30.439L84.397 27.9366Z" fill="#FBBC05"/>
<path d="M90.1992 19.8534C92.1144 19.8534 93.4062 20.6617 94.1429 21.3372L97.0213 18.5911C95.2535 16.9855 92.953 16 90.1992 16C86.2102 16 82.7651 18.2367 81.0879 21.4921L84.3856 23.9947C85.213 21.5918 87.5021 19.8534 90.1992 19.8534Z" fill="#EB4335"/>
</g>
<defs>
<clipPath id="clip0_256_1131">
<rect width="20" height="20" fill="white" transform="translate(80 16)"/>
</clipPath>
</defs>
</svg>
