<svg width="120" height="120" viewBox="0 0 120 120" fill="none" xmlns="http://www.w3.org/2000/svg">
<circle opacity="0.99" cx="55" cy="55" r="55" fill="#42A846" fill-opacity="0.2"/>
<g clip-path="url(#clip0_278_2445)">
<path d="M32.5 32.5H77.5C78.163 32.5 78.7989 32.7634 79.2678 33.2322C79.7366 33.7011 80 34.337 80 35V75C80 75.663 79.7366 76.2989 79.2678 76.7678C78.7989 77.2366 78.163 77.5 77.5 77.5H32.5C31.837 77.5 31.2011 77.2366 30.7322 76.7678C30.2634 76.2989 30 75.663 30 75V35C30 34.337 30.2634 33.7011 30.7322 33.2322C31.2011 32.7634 31.837 32.5 32.5 32.5ZM75 43.095L55.18 60.845L35 43.04V72.5H75V43.095ZM36.2775 37.5L55.1525 54.155L73.755 37.5H36.2775Z" fill="#2F725A"/>
</g>
<defs>
<clipPath id="clip0_278_2445">
<rect width="60" height="60" fill="white" transform="translate(25 25)"/>
</clipPath>
</defs>
</svg>
