<svg width="180" height="52" viewBox="0 0 180 52" fill="none" xmlns="http://www.w3.org/2000/svg">
<rect width="180" height="52" rx="8" fill="#FFFFFF"/>
<g clip-path="url(#clip0_256_1137)">
<path d="M101.024 18.2016C100.198 18.569 99.3226 18.8102 98.4259 18.9171C99.3599 18.3547 100.077 17.4642 100.415 16.4031C99.5269 16.9324 98.5554 17.3054 97.5424 17.5058C96.7173 16.6227 95.5418 16.0708 94.2407 16.0708C91.7426 16.0708 89.7172 18.1054 89.7172 20.6148C89.7172 20.971 89.7572 21.3178 89.8343 21.6504C86.075 21.4609 82.742 19.6518 80.5109 16.9026C80.1216 17.5737 79.8986 18.3544 79.8986 19.1871C79.8986 20.7636 80.6972 22.1544 81.9108 22.9693C81.1925 22.9467 80.49 22.7518 79.8619 22.4009C79.8617 22.4199 79.8617 22.439 79.8617 22.4581C79.8617 24.6597 81.4209 26.4964 83.4901 26.9138C82.824 27.0958 82.1253 27.1225 81.4474 26.9917C82.023 28.797 83.6935 30.1107 85.6729 30.1475C84.1248 31.3662 82.1743 32.0927 80.0551 32.0927C79.69 32.0927 79.33 32.0712 78.9761 32.0292C80.9779 33.3185 83.3555 34.0708 85.91 34.0708C94.2302 34.0708 98.7799 27.1466 98.7799 21.1418C98.7799 20.9447 98.7756 20.7487 98.7668 20.5539C99.6523 19.9108 100.417 19.1142 101.024 18.2016Z" fill="#55ACEE"/>
</g>
<defs>
<clipPath id="clip0_256_1137">
<rect width="22.0478" height="18" fill="white" transform="translate(78.9761 16)"/>
</clipPath>
</defs>
</svg>
