<svg width="34" height="30" viewBox="0 0 34 30" fill="none" xmlns="http://www.w3.org/2000/svg">
<path d="M31.5 27V30H1.5V27H3V16.863C2.07656 16.2466 1.31957 15.4118 0.79623 14.4326C0.27289 13.4535 -0.0006116 12.3602 1.02692e-06 11.25C1.02692e-06 10.0095 0.336001 8.814 0.949501 7.7955L5.0175 0.75C5.14915 0.521977 5.3385 0.332624 5.56652 0.200971C5.79454 0.0693193 6.0532 6.68883e-06 6.3165 0H26.685C26.9483 6.68883e-06 27.207 0.0693193 27.435 0.200971C27.663 0.332624 27.8523 0.521977 27.984 0.75L32.037 7.773C32.9318 9.25931 33.2195 11.0333 32.8401 12.7262C32.4607 14.4191 31.4436 15.9007 30 16.863V27H31.5ZM7.1835 3L3.534 9.3195C3.17937 10.1957 3.16872 11.1735 3.5042 12.0573C3.83967 12.941 4.49652 13.6654 5.34327 14.0856C6.19003 14.5057 7.16422 14.5906 8.07087 14.3232C8.97753 14.0558 9.74975 13.4559 10.233 12.6435C10.7355 11.388 12.513 11.388 13.017 12.6435C13.2949 13.3401 13.7754 13.9374 14.3963 14.3582C15.0172 14.7789 15.75 15.0038 16.5 15.0038C17.25 15.0038 17.9828 14.7789 18.6037 14.3582C19.2246 13.9374 19.7051 13.3401 19.983 12.6435C20.4855 11.388 22.263 11.388 22.767 12.6435C22.9617 13.1227 23.2533 13.5564 23.6237 13.9174C23.9941 14.2784 24.4351 14.5589 24.9191 14.7413C25.4031 14.9236 25.9196 15.0039 26.4361 14.977C26.9526 14.9502 27.4579 14.8167 27.9204 14.5851C28.3829 14.3535 28.7924 14.0288 29.1233 13.6313C29.4542 13.2338 29.6993 12.7721 29.8432 12.2754C29.9871 11.7786 30.0267 11.2574 29.9594 10.7446C29.8922 10.2318 29.7196 9.7384 29.4525 9.2955L25.815 3H7.185H7.1835Z" fill="#09121F"/>
</svg>
