<svg width="22" height="18" viewBox="0 0 22 18" fill="none" xmlns="http://www.w3.org/2000/svg">
<path d="M20.5 4H21.5V14H20.5V17C20.5 17.2652 20.3946 17.5196 20.2071 17.7071C20.0196 17.8946 19.7652 18 19.5 18H1.5C1.23478 18 0.98043 17.8946 0.792893 17.7071C0.605357 17.5196 0.5 17.2652 0.5 17V1C0.5 0.734784 0.605357 0.48043 0.792893 0.292893C0.98043 0.105357 1.23478 0 1.5 0H19.5C19.7652 0 20.0196 0.105357 20.2071 0.292893C20.3946 0.48043 20.5 0.734784 20.5 1V4ZM18.5 14H12.5C11.1739 14 9.90215 13.4732 8.96447 12.5355C8.02678 11.5979 7.5 10.3261 7.5 9C7.5 7.67392 8.02678 6.40215 8.96447 5.46447C9.90215 4.52678 11.1739 4 12.5 4H18.5V2H2.5V16H18.5V14ZM19.5 12V6H12.5C11.7044 6 10.9413 6.31607 10.3787 6.87868C9.81607 7.44129 9.5 8.20435 9.5 9C9.5 9.79565 9.81607 10.5587 10.3787 11.1213C10.9413 11.6839 11.7044 12 12.5 12H19.5ZM12.5 8H15.5V10H12.5V8Z" fill="white"/>
</svg>
